<?xml version="1.0" encoding="UTF-8"?>
<svg clip-rule="evenodd" fill-rule="evenodd" image-rendering="optimizeQuality" shape-rendering="geometricPrecision" text-rendering="geometricPrecision" version="1.1" viewBox="0 0 220.8 307.99" xmlns="http://www.w3.org/2000/svg">
 <defs>
  <style type="text/css">.fil0 {fill:black}</style>
 </defs>
 <g transform="translate(-53.707 -12.67)">
  <path class="fil0" d="m203.15 12.67s-17.622 49.79 11.028 94.29c28.64 44.5 126.45 132.19-11.9 213.7 0 0 29.3-41.64 14.54-70.06s-42.886-47.516-37.606-92.016c0 0-45.444 15.356-26.944 94.216 0 0-23.57-8.59-33.49-31.83 0 0-14.65 45.6 12.23 98.92 0 0-150.82-85.218-31.134-201.95 0 0 6.0143 45.527 22.984 57.427 0 0-21.818-116.32 80.292-162.7z"/>
 </g>
</svg>
