<?xml version="1.0" encoding="UTF-8"?>
<svg fill-rule="evenodd" overflow="visible" stroke-linejoin="bevel" stroke-width=".501" version="1.1" viewBox="0 0 70.375 79.325" xmlns="http://www.w3.org/2000/svg">
 <g transform="matrix(1 0 0 -1 -12.602 -5.7115)" fill="none" font-family="'Times New Roman'" font-size="16px" stroke="#000">
  <g transform="translate(0,-96)">
   <path d="m33.75 11.937c-0.36 0.507-0.704 1.032-1.033 1.575h4.165c-0.916 0.876-1.768 1.849-2.555 2.925h10.765c-0.217-1.981-0.451-3.802-0.701-5.473-3.966 0.059-7.51 0.386-10.641 0.973zm16.267 4.5h9.973c-1.229-1.373-2.591-2.59-4.076-3.662h5.691c-0.283-0.361-0.573-0.714-0.873-1.059-1.351-0.142-2.783-0.219-4.297-0.228l-5.75-0.31c-0.238 1.612-0.461 3.363-0.668 5.259zm-37.415 19.647c1.095-2.157 6.0983-5.7159 8.2203-3.7344-3.427 10.765-7.665 16.849-2.0856 27.753 0.357-2.71 3.6319-9.05 7.3426-7.9523-0.581 9.186-1.4396 22.549 4.8944 28.671-0.775-3.866 2.1375-11.946 6.9336-15.223-0.527 10.272 9.8063 11.607 10.183 24.69 3.965-3.701 6.9529-12.816 6.3739-21.3 1.967 2.911 9.0533 8.3209 12.408 10.676-5.1338-9.3203-6.0473-20.384-3.2103-25.502 0.882 3.175 6.3901 10.841 10.094 12.599-2.7138-6.3283-0.4368-19.654 2.2502-26.218l5.0392 11.344c5.0107-14.459-0.56455-29.308-7.1875-35.103-0.924 1.07-1.769 2.232-2.532 3.49h4.165c-2.071 1.983-3.822 4.462-5.211 7.5h2.805c-3.091 4.147-5.185 10.459-6.007 19.523-0.822-9.064-2.916-15.376-6.007-19.523h2.804c-1.389-3.038-3.14-5.517-5.21-7.5h4.164c-0.667-1.098-1.396-2.123-2.185-3.078-2.982 1.845-5.537 4.078-7.618 6.74h5.693c-2.748 1.983-5.072 4.462-6.916 7.5h4.165c-2.071 1.983-3.822 4.462-5.211 7.5h2.805c-3.091 4.147-5.185 10.459-6.007 19.523-0.822-9.064-2.916-15.376-6.007-19.523h2.804c-1.389-3.038-3.14-5.517-5.21-7.5h4.164c-1.844-3.038-4.168-5.517-6.915-7.5h5.691c-2.191-2.802-4.907-5.129-8.091-7.029-0.859 1.236-1.634 2.602-2.32 4.104h2.805c-3.091 4.147-5.185 10.459-6.007 19.523-0.822-9.064-2.916-15.376-6.007-19.523h2.804c-0.807-1.765-1.736-3.341-2.778-4.74-6.158 4.323-9.4535 10.517-9.8863 19.812z" fill="#000" stroke="none" stroke-linecap="round" stroke-linejoin="miter" stroke-miterlimit="79.84" stroke-width=".75"/>
  </g>
 </g>
</svg>
